<svg width="37" height="37" viewBox="0 0 37 37" fill="none" xmlns="http://www.w3.org/2000/svg">
<g clip-path="url(#clip0_52_23559)">
<path d="M1.03968e-05 18.4786C0.0107381 8.27575 8.30329 0 18.4946 0C28.7182 0 37.0107 8.30787 37 18.5214C36.9786 28.7242 28.6967 37 18.5054 37C8.28183 37 -0.0107174 28.6921 1.03968e-05 18.4786ZM18.5161 2.18403C9.48334 2.16262 2.17774 9.46412 2.17774 18.5C2.17774 27.5145 9.45116 34.8053 18.4732 34.8267C27.4952 34.8481 34.8116 27.5466 34.8116 18.5107C34.8223 9.48553 27.5489 2.19473 18.5161 2.18403Z" fill="white"/>
<path d="M17.5399 33.3707C13.5277 33.2529 9.54768 31.2509 6.52246 27.3325C6.32936 27.0755 6.32936 26.8828 6.47955 26.6152C6.99448 25.7373 7.74542 25.0949 8.58219 24.5596C10.1913 23.5211 11.8541 22.5897 13.6457 21.8938C13.9461 21.776 14.2357 21.6476 14.5146 21.4763C15.3085 20.9945 15.5552 20.1487 15.1261 19.3244C14.9545 18.9925 14.7292 18.6927 14.4932 18.3929C13.1844 16.7014 12.2511 14.8492 11.9507 12.708C11.7147 11.0272 11.7683 9.36777 12.4656 7.78327C13.4311 5.55642 15.1797 4.36806 17.5399 4.04688C18.6663 3.89699 19.7927 3.95052 20.8762 4.31453C23.2899 5.11748 24.6202 6.86256 25.0707 9.29282C25.6286 12.3226 24.8562 15.0741 23.1076 17.5686C22.8715 17.9005 22.6033 18.2002 22.3995 18.5428C22.185 18.9068 21.9704 19.2922 21.8524 19.6884C21.5949 20.5234 21.8202 21.1444 22.5712 21.5833C23.1612 21.9259 23.7941 22.1829 24.4271 22.4398C25.929 23.0501 27.4094 23.7031 28.7396 24.6453C29.4691 25.1591 30.0913 25.7694 30.5526 26.5509C30.7135 26.8293 30.7028 27.0327 30.5097 27.3003C27.6561 31.1438 23.2363 33.3814 17.5399 33.3707Z" fill="white"/>
</g>
<defs>
<clipPath id="clip0_52_23559">
<rect width="37" height="37" fill="white"/>
</clipPath>
</defs>
</svg>
