<?xml version="1.0" encoding="UTF-8"?>
<svg version="1.1" xmlns="http://www.w3.org/2000/svg" width="10" height="12" fill="#fff">
<path d="M0 0 C3.87263454 3.67900281 5.63113522 7.05061904 5.875 12.375 C5.71023927 16.28432278 4.69282166 19.08576752 2.5 22.375 C0.625 23.8125 0.625 23.8125 -1.5 24.375 C-4.0625 24 -4.0625 24 -6.5 23.375 C-9.51596918 23.26105777 -9.51596918 23.26105777 -12.4375 24.0625 C-15.5 24.375 -15.5 24.375 -17.875 23.4375 C-19.92109621 20.84053173 -20.11554027 18.7124131 -19.96484375 15.4453125 C-19.1453194 11.79533008 -17.14914223 9.96106741 -14.5 7.375 C-11.97524538 6.11262269 -10.18799534 6.27643596 -7.375 6.3125 C-5.76625 6.333125 -4.1575 6.35375 -2.5 6.375 C-2.83 10.665 -3.16 14.955 -3.5 19.375 C-2.51 19.375 -1.52 19.375 -0.5 19.375 C1.36654947 15.64190106 1.0424959 11.44052807 0.5 7.375 C-1.23022394 4.06133188 -1.23022394 4.06133188 -4.5 2.375 C-9.16329615 1.42348185 -12.56869787 1.94384161 -16.875 3.9375 C-20.5763603 7.37447742 -22.33914601 10.5332462 -22.62890625 15.65234375 C-22.39177205 19.97106058 -21.85159164 21.94227183 -19.0625 25.375 C-15.20409132 28.38644092 -13.68292163 28.44065459 -8.875 27.9375 C-7.87210938 27.83566406 -6.86921875 27.73382812 -5.8359375 27.62890625 C-4.67964844 27.50322266 -4.67964844 27.50322266 -3.5 27.375 C-3.17 28.365 -2.84 29.355 -2.5 30.375 C-6.76195092 32.50597546 -10.80884625 32.97406678 -15.5 32.375 C-19.68913372 30.76379472 -22.60392634 28.8073836 -25.5 25.375 C-27.33866817 19.85899549 -27.61012241 13.46641712 -25.62890625 7.94921875 C-20.13256686 -1.61981802 -10.12577592 -4.70125311 0 0 Z M-13.25 11.5625 C-15.72833656 14.14666344 -15.72833656 14.14666344 -15.8125 17.1875 C-15.709375 17.909375 -15.60625 18.63125 -15.5 19.375 C-13.025 19.87 -13.025 19.87 -10.5 20.375 C-7.35041169 16.95153445 -6.93820891 13.93237263 -6.5 9.375 C-10.56391983 8.95998429 -10.56391983 8.95998429 -13.25 11.5625 Z " fill="#666666" transform="translate(26.5,1.625)"/>
</svg>
